<?xml version="1.0" encoding="UTF-8"?><svg id="Capa_2" xmlns="http://www.w3.org/2000/svg" viewBox="0 0 738.75 74.37"><defs><style>.cls-1{fill:#fff;}</style></defs><g id="Capa_1-2"><g><path class="cls-1" d="M72.47,55.68c-6.44,10.77-18.38,18.69-33.59,18.69C16.37,74.37,0,57.89,0,36.66,0,16.7,16.37,0,38.87,0c15.32,0,27.36,7.19,33.8,17.96l-14.68,8.56c-3.38-6.55-10.03-10.88-19.12-10.88-12.57,0-21.34,9.19-21.34,21.02s8.76,21.44,21.34,21.44c8.87,0,15.42-4.54,18.91-10.88l14.68,8.46Z"/><path class="cls-1" d="M150.47,73.1h-17.43v-27.89h-31.58v27.89h-17.32V1.27h17.32V29.16h31.58V1.27h17.43V73.1Z"/><path class="cls-1" d="M226.88,28.2c0,10.36-5.07,19.12-12.78,23.24l14.79,21.66h-21.55l-10.77-17.86h-12.68v17.86h-17.32V1.27h34.75c14.58,0,25.56,11.3,25.56,26.93Zm-42.99-10.88v21.87h14.9c5.91,0,10.67-4.96,10.67-10.99s-4.76-10.88-10.56-10.88h-15Z"/><path class="cls-1" d="M258.61,57.04h37.72v16.06h-55.04V1.27h17.32V57.04Z"/><path class="cls-1" d="M329.37,45.96v27.15h-17.43v-27.15L281.3,1.27h19.96l19.54,29.37L340.03,1.27h20.18l-30.84,44.68Z"/><path class="cls-1" d="M471.25,37.08c0,20.92-15.53,36.02-37.92,36.02h-31.8V1.38l31.8-.1c23.66-.11,37.92,15.1,37.92,35.81Zm-52.39,19.96h14.47c12.04,0,20.39-7.92,20.39-19.96,0-12.88-8.13-19.76-20.39-19.76h-14.47V57.04Z"/><path class="cls-1" d="M539.11,23.98h-17.22c0-3.59-4.22-8.45-11.62-8.45-5.18,0-11.52,2.32-11.52,6.44,0,3.48,4.76,4.86,14.9,7.5,11.3,2.96,27.25,6.76,27.25,22.6,0,13.74-12.04,22.29-28.83,22.29-22.5,0-31.9-15.21-31.9-26.41h17.22s1.37,11.41,15.63,11.41c7.72,0,10.56-3.27,10.56-6.33,0-4.55-6.02-6.13-12.67-7.72-10.78-2.54-29.69-6.55-29.69-22.5,0-13.1,12.89-22.82,29.26-22.82,18.7,0,28.63,12.78,28.63,23.98Z"/><path class="cls-1" d="M570.94,73.1h-17.33V1.27h17.33V73.1Z"/><path class="cls-1" d="M654.73,15.74l-15,7.61c-3.6-4.55-9.19-7.08-17.43-7.08-12.57,0-21.33,8.76-21.33,20.7s8.97,21.23,21.55,21.23c7.71,0,13.84-2.43,17.64-6.02v-6.97h-21.86v-13.31h37.18v26.62c-.53,1.06-11.84,15.84-32.86,15.84-23.77,0-39.08-17.85-39.08-37.18S599.91,0,622.51,0c13.84,0,25.04,6.24,32.22,15.74Z"/><path class="cls-1" d="M738.75,73.1h-17.43l-36.34-43.94v43.94h-17.43V1.27h17.43l36.34,43.83V1.27h17.43V73.1Z"/></g></g></svg>